<?xml version="1.0" encoding="UTF-8"?>
<svg version="1.1" viewBox="0 0 2048 806" width="358" height="141" xmlns="http://www.w3.org/2000/svg">
<path transform="translate(0)" d="m0 0h2048v806h-2048z" fill="#FDFDFD"/>
<path transform="translate(466,346)" d="m0 0h157l1 10v193l1 13v68l-2 7-10 5-38 15-30 12-37 15-120 48-37 15-15 6-7-1-41-17-235-94-8-5v-86l1-1 292-1h282l-15-11-16-11-18-13-16-11-18-13-51-36-6-4-5 2-11 8-13 9-18 13-16 11-14 10-19 13-16 12-12 8-11 7-8 5h-3v-200z" fill="#011B64"/>
<path transform="translate(345,55)" d="m0 0h276l2 1 1 245v55h-1v-10l-93 1h-196l-1-5v-286z" fill="#604AD4"/>
<path transform="translate(45,55)" d="m0 0 288 1 1 22v267l-80 1h-208l-1-17z" fill="#FE890A"/>
<path transform="translate(466,346)" d="m0 0h157l1 10v191l-3 2-13-10-19-13-18-13-16-11-18-13-51-36-6-4-5 2-11 8-13 9-18 13-16 11-14 10-19 13-16 12-12 8-11 7-8 5h-3v-200z" fill="#F7013B"/>
<path transform="translate(333,345)" d="m0 0h1l1 42v128l-1 32 8-4 14-9 16-11 15-11 19-13 18-13 16-11 18-13 12-8 8-6 5 2 20 14 34 24 18 13 16 11 18 13 23 16 9 7v1h-286l-284 1-3-2 8-7 24-16 11-8 16-11 20-14 18-13 19-13 34-24 20-14 18-13 16-11 17-12 18-13 19-14 24-16z" fill="#FDFDFD"/>
<path transform="translate(183,91)" d="m0 0 20 1 18 4 15 6 16 9 13 11 8 8 7 10 8 14 6 16 3 15 1 8v18l-3 17-7 19-9 16-9 11-9 9-14 10-16 9-17 6-12 2h-20l-19-3-15-5-19-10-13-10-10-10-9-13-8-15-6-18-3-17v-9l2-17 4-16 5-12 8-15 8-10 6-7 8-7 12-9 15-8 15-5 9-2z" fill="#FDFDFD"/>
<path transform="translate(254,345)" d="m0 0h79l-2 4-11 8-18 12-19 14-18 13-43 30-18 13-19 13-18 13-23 16-34 24-16 11-23 16-19 13-4 3h-3v-199l3-3z" fill="#02A1FE"/>
<path transform="translate(1395,392)" d="m0 0h9l12 3 11 6 11 10 1-2v-13l1-1h41v137l-2 14-4 13-6 11-10 11-11 7-13 5-8 2-17 1-15-2-12-3-16-8-11-10-7-11-4-11-1-7 3-2h36l7 9v2l4 2 10 3h12l9-2 5-3 6-10 2-8v-21l-12 10-13 6-10 2-16-1-10-3-11-6-12-11-9-14-5-15-2-10v-19l3-16 5-12 7-11 5-6 11-8 11-5z" fill="#031C67"/>
<path transform="translate(721,106)" d="m0 0h85l14 3 12 5 10 9 5 8 4 11v18l-5 12-8 9-10 6v2l9 5 8 7 7 10 3 10v16l-4 13-8 11-11 7-9 4-14 3-20 1h-59l-9-1-1-7v-145z" fill="#021C67"/>
<path transform="translate(1489,138)" d="m0 0 15 2 10 5 14 12v-15l7-2 34 1 1 2v125l-1 7-1 1h-37l-2-2v-14l-5 2-12 9-10 5-9 2-15-1-14-5-11-7-6-5-9-12-6-14-3-12-1-7v-14l2-13 6-18 9-13 10-9 14-7 8-2z" fill="#021C66"/>
<path transform="translate(1045,140)" d="m0 0h7l3 7 7 34 9 46v4h2l4-17 14-62 3-11 43-1 3 7 7 28 9 38 4 18 4-16 14-72 1-2h39l-6 24-18 68-11 40-3 3h-37l-7-2-7-26-12-51-1-5h-2l-2 13-14 55-5 15-1 1h-31l-11-1-3-3-20-74-12-44-3-13z" fill="#021C67"/>
<path transform="translate(477,92)" d="m0 0 3 1 12 27 9 15 11 14 11 12 13 11 15 10 17 9 20 8 1 4-6 2-14 5-16 8-16 10-15 13-9 9-12 16-12 21-5 11-4 11h-2l-10-23-11-19-10-13-9-10-9-9-16-12-18-10-16-7-10-3v-4l16-6 17-8 17-11 10-8 10-9 11-12 12-17 8-16 5-13z" fill="#FDFDFD"/>
<path transform="translate(802,351)" d="m0 0h12l16 2 16 5 14 8 13 11 8 11 8 15 3 7v3l-11 1h-35l-7-8-5-6-14-7-4-1h-17l-12 4-8 6-7 8-5 11-3 15v12l4 16 5 10 8 9 12 6 10 2h9l12-3 9-5 9-10 3-4h47l-2 9-8 16-8 10-9 9-11 7-10 5-17 5-5 1h-26l-18-4-16-7-11-8-8-7-8-10-8-14-5-16-3-16v-14l3-17 5-16 9-16 9-10 11-10 10-6 16-6 9-2z" fill="#021C67"/>
<path transform="translate(926,139)" d="m0 0h24l16 4 12 6 9 7 9 10 8 16 4 13 1 16-2 13-6 18-7 10-11 11-14 8-16 5-6 1h-18l-14-3-12-5-11-7-9-9-8-13-5-15-2-13v-10l3-15 6-16 10-13 10-8 16-8z" fill="#021C66"/>
<path transform="translate(964,393)" d="m0 0h21l18 4 15 8 10 9 9 14 5 11 3 14v18l-4 18-8 15-8 9-11 8-10 5-13 4-5 1h-21l-14-3-12-5-11-8-9-9-6-10-5-12-2-9v-26l3-12 8-16 9-10 8-7 14-7z" fill="#021C66"/>
<path transform="translate(1271,106)" d="m0 0h44l6 16 29 88 6 18v2h2l3-11 20-61 16-50 1-2h43l1 2-14 40-30 85-11 30-5 12-2 1h-33l-15-1-5-10-20-56-17-49-16-45z" fill="#031C67"/>
<path transform="translate(1246,393)" d="m0 0h23l16 4 14 7 10 9 7 11 5 11 3 10 1 8v17l-2 2-91 1 2 9 6 9 7 4 5 1h9l9-3 7-8 2-1h42l1 4-9 17-9 10-10 7-16 7-10 2h-20l-17-4-13-7-11-9-7-10-5-10-4-14-1-6v-19l4-18 6-12 8-10 8-7 14-8z" fill="#031D67"/>
<path transform="translate(1549,393)" d="m0 0h23l16 4 14 7 11 10 7 11 5 11 3 13v21l-2 2h-91l2 9 5 8v2l4 2 10 3 13-1 7-4 4-6 2-1h42l1 4-9 17-9 10-13 9-13 5-8 2h-22l-16-4-14-7-10-9-6-7-7-14-3-9-2-14 1-17 3-15 7-14 9-10 9-8 12-6z" fill="#031C67"/>
<path transform="translate(1777,139)" d="m0 0h26l15 4 13 7 10 9 7 10 6 13 3 15v18l-2 3h-92l6 15 5 5 5 3 4 1h12l9-4 6-7h43l-1 7-6 11-11 12-8 6-12 6-16 4h-18l-14-3-12-5-11-8-7-7-7-11-5-13-3-17v-10l2-15 5-15 7-11 10-10 14-8 11-4z" fill="#021C67"/>
<path transform="translate(1857,141)" d="m0 0h46l4 9 14 39 11 30 3 3 2-9 16-43 10-28 1-1h44l-1 5-18 42-12 29-8 19-17 40-20 48-7 14-1 1h-40l-3-2 13-29 14-32 1-9-7-17-17-40-8-20-15-35-5-12z" fill="#021C66"/>
<path transform="translate(1131,350)" d="m0 0h41l1 52v103l-1 24h-41z" fill="#021C66"/>
<path transform="translate(1064,350)" d="m0 0h40l1 2v153l-1 24-3 1-38-1v-178z" fill="#021C66"/>
<path transform="translate(1663,97)" d="m0 0h41v178l-1 1h-39l-1-1z" fill="#011B64"/>
<path transform="translate(1594,97)" d="m0 0h41v177l-1 2h-40z" fill="#021B65"/>
<path transform="translate(1405,429)" d="m0 0 13 1 10 5 7 9 3 8v18l-3 9-6 8-5 4-9 4h-10l-9-3-10-9-4-8-2-9v-8l2-10 6-10 8-6z" fill="#FDFDFD"/>
<path transform="translate(1492,175)" d="m0 0h12l10 4 8 7 5 10 1 3v17l-4 10-6 8-9 5-7 2h-8l-10-4-8-8-4-9-1-4v-18l4-10 7-8z" fill="#FDFDFD"/>
<path transform="translate(971,429)" d="m0 0 13 1 6 3 5 4 5 8 2 6 1 7v9l-2 9-5 9-8 7-7 3h-13l-7-3-7-6-5-10-2-10v-8l3-12 6-9 6-5z" fill="#FDFDFD"/>
<path transform="translate(932,175)" d="m0 0h12l12 6 6 7 3 9v20l-3 9-6 8-7 5-6 2h-13l-10-6-4-5-4-9-1-4v-18l4-11 7-8 7-4z" fill="#FDFDFD"/>
<path transform="translate(764,204)" d="m0 0 33 1 10 4 5 6 2 6-1 8-4 6-5 5-3 1-11 1h-27l-1-1v-36z" fill="#FDFDFD"/>
<path transform="translate(764,139)" d="m0 0 32 1 8 4 4 5 1 2v10l-4 8-6 4-9 2h-27l-1-1v-33z" fill="#FDFDFD"/>
<path transform="translate(1254,426)" d="m0 0h8l11 4 7 8 3 9-3 2h-47l-2-4 6-10 7-6z" fill="#FDFDFD"/>
<path transform="translate(1557,426)" d="m0 0h8l11 4 7 7 3 7-1 4-2 1h-47l-1-5 5-8 8-7z" fill="#FDFDFD"/>
<path transform="translate(1786,172)" d="m0 0 12 1 8 4 7 8 2 5v3l-9 2h-39l-3-1 1-6 7-10 6-4z" fill="#FDFDFD"/>
<path transform="translate(335,548)" d="m0 0h288l1 1 1 13v68l-1 6h-1l-1-86-10 1h-223l-325-1v-1z" fill="#604AD4"/>
<path transform="translate(622,548)" d="m0 0 2 1 1 13v68l-1 6h-1l-1-86-10 1h-25v-2z" fill="#4166E2"/>
</svg>
